<?xml version="1.0" encoding="utf-8"?>
<!-- Generator: Adobe Illustrator 18.1.1, SVG Export Plug-In . SVG Version: 6.00 Build 0)  -->
<svg version="1.1" id="svg-icons" xmlns="http://www.w3.org/2000/svg" xmlns:xlink="http://www.w3.org/1999/xlink" x="0px" y="0px"
	 width="100px" height="100px" viewBox="0 0 100 100" enable-background="new 0 0 100 100" display="none" xml:space="preserve">
<g id="svg-circle" display="inline">
	<path fill="none" d="M130,1C58.6,1,1,58.6,1,130s57.6,129,129,129s129-57.6,129-129S201.4,1,130,1L130,1z"/>
</g>
<g id="svg-circle-small" display="inline">
	<path fill="none" d="M130,1C58.6,1,1,58.6,1,130s57.6,129,129,129s129-57.6,129-129S201.4,1,130,1L130,1z"/>
</g>
<g id="svg-circle-big" display="inline">
	<path fill="none" d="M260,1C116.7,1,1,116.6,1,260s115.7,259,259,259s259-115.7,259-259S403.3,1,260,1L260,1z"/>
</g>
<g id="svg-navbar-icon-sessions" display="inline">
	<path d="M27,30H3c-1.7,0-3-1.3-3-3V3c0-1.7,1.3-3,3-3h24c1.7,0,3,1.3,3,3v24C30,28.7,28.7,30,27,30z M3,2C2.4,2,2,2.4,2,3v24
		c0,0.6,0.4,1,1,1h24c0.6,0,1-0.4,1-1V3c0-0.6-0.4-1-1-1H3z"/>
	<ellipse cx="15" cy="6.5" rx="0.8" ry="0.9"/>
	<ellipse cx="20.3" cy="6.5" rx="0.8" ry="0.9"/>
	<ellipse cx="25.6" cy="6.5" rx="0.8" ry="0.9"/>
	<ellipse cx="4.4" cy="11.8" rx="0.8" ry="0.9"/>
	<ellipse cx="9.8" cy="11.8" rx="0.8" ry="0.9"/>
	<ellipse cx="15" cy="11.8" rx="0.8" ry="0.9"/>
	<ellipse cx="20.3" cy="11.8" rx="1.4" ry="1.5"/>
	<ellipse cx="25.6" cy="11.8" rx="0.8" ry="0.9"/>
	<ellipse cx="4.4" cy="17.2" rx="0.8" ry="0.9"/>
	<ellipse cx="9.8" cy="17.2" rx="0.8" ry="0.9"/>
	<ellipse cx="15" cy="17.2" rx="0.8" ry="0.9"/>
	<ellipse cx="20.3" cy="17.2" rx="0.8" ry="0.9"/>
	<ellipse cx="25.6" cy="17.2" rx="0.8" ry="0.9"/>
	<ellipse cx="4.4" cy="22.5" rx="0.8" ry="0.9"/>
	<ellipse cx="9.8" cy="22.5" rx="0.8" ry="0.9"/>
	<ellipse cx="15" cy="22.5" rx="0.8" ry="0.9"/>
</g>
<g id="svg-navbar-icon-settings" display="inline">
	<path d="M17.7,30l-0.3-0.8C17,28,16.3,27.4,15,27.4c-1.2,0-2,0.6-2.4,1.7L12.3,30l-0.9-0.2C9.6,29.3,8.2,28.6,7,28l-0.8-0.4
		l0.4-0.8c0.5-1.1,0.3-2-0.5-2.8c-0.5-0.5-1-0.7-1.8-0.7c-0.4,0-0.8,0.1-1,0.2l-0.9,0.4L2,23c-0.8-1.5-1.4-2.9-1.8-4.4L0,17.8
		l0.8-0.3C2,17,2.6,16.3,2.6,15c0-1.2-0.6-2-1.7-2.4L0,12.3l0.2-0.9C0.7,9.6,1.4,8.2,2,7l0.5-0.8l0.9,0.4c0.3,0.1,0.6,0.2,1,0.2
		c0.5,0,1.3-0.1,1.7-0.6c0.9-1,1-1.8,0.5-2.9L6.2,2.4L7,2c1.5-0.8,2.9-1.4,4.4-1.8L12.3,0l0.3,0.8C13,2,13.8,2.6,15,2.6
		s2-0.6,2.4-1.7L17.7,0l0.9,0.2C20.4,0.7,21.8,1.4,23,2l0.8,0.4l-0.4,0.8c-0.5,1.1-0.3,2,0.5,2.8c0.5,0.5,1,0.7,1.8,0.7
		c0.4,0,0.8-0.1,1-0.2l0.8-0.4L28,7c0.8,1.2,1.3,2.5,1.8,4.5l0.2,0.9l-0.8,0.3C28,13,27.4,13.8,27.4,15s0.6,2,1.7,2.4l0.8,0.3
		l-0.2,0.9c-0.5,1.8-1.1,3.2-1.8,4.4l-0.5,0.8l-0.9-0.4c-0.3-0.1-0.6-0.2-1-0.2c-0.5,0-1.3,0.1-1.7,0.6c-0.9,0.9-1.1,1.8-0.5,2.9
		l0.4,0.8L23.1,28c-1.2,0.8-2.5,1.3-4.5,1.8L17.7,30z M15,25.5c1.8,0,3.1,0.8,3.9,2.2c1-0.3,1.7-0.6,2.4-0.9c-0.4-1.6,0-3,1.2-4.2
		c0.7-0.8,1.8-1.3,3.2-1.3c0.4,0,0.7,0,1,0.1c0.4-0.7,0.7-1.5,1-2.4c-1.4-0.8-2.2-2.2-2.2-3.9c0-1.8,0.8-3.1,2.2-3.9
		c-0.3-1-0.6-1.7-0.9-2.4c-0.3,0.1-0.7,0.1-1,0.1c-1.3,0-2.3-0.4-3.2-1.3c-1.2-1.2-1.6-2.7-1.2-4.2c-0.7-0.4-1.5-0.7-2.4-1
		c-0.8,1.4-2.2,2.2-3.9,2.2S12,3.9,11.2,2.4c-0.8,0.3-1.6,0.6-2.4,1c0.4,1.5,0,2.9-1.2,4.2C6.8,8.3,5.7,8.8,4.3,8.8
		c-0.4,0-0.7,0-1-0.1c-0.4,0.7-0.7,1.5-1,2.4c1.4,0.8,2.2,2.2,2.2,3.9s-0.7,3.1-2.2,3.9c0.3,0.8,0.6,1.6,1,2.4
		c0.3-0.1,0.6-0.1,1-0.1c1.3,0,2.3,0.4,3.2,1.3c1.2,1.2,1.6,2.7,1.2,4.2c0.7,0.4,1.5,0.7,2.4,1C11.9,26.2,13.3,25.5,15,25.5z
		 M15.1,21.8c-1.8,0-3.5-0.7-4.7-2c-1.3-1.3-2-2.9-2-4.7s0.7-3.5,2-4.7c1.3-1.3,2.9-2,4.7-2s3.5,0.7,4.7,2c1.3,1.3,2,2.9,2,4.7
		s-0.7,3.5-2,4.7C18.6,21.1,16.9,21.8,15.1,21.8z M15.1,10.4c-1.3,0-2.4,0.5-3.3,1.4s-1.4,2-1.4,3.3s0.5,2.4,1.4,3.4
		c0.9,0.9,2,1.4,3.3,1.4s2.4-0.5,3.4-1.4c0.9-0.9,1.4-2,1.4-3.4c0-1.3-0.5-2.4-1.4-3.3C17.5,10.8,16.4,10.4,15.1,10.4z"/>
</g>
<g id="svg-navbar-icon-close" display="inline">
	<polygon points="25,6.3 23.7,5 15,13.7 6.3,5 5,6.3 13.7,15 5,23.7 6.3,25 15,16.3 23.7,25 25,23.7 16.3,15 	"/>
</g>
<g id="svg-navbar-icon-ok" display="inline">
	<path d="M10.6,25.8c-0.3,0.4-0.7,0.6-1.3,0.6c-0.4,0-0.9-0.1-1.3-0.6l-8-8.1L2.7,15l6.8,6.8l18-18L30,6.4L10.6,25.8z"/>
</g>
<g id="svg-dialog-icon-import" display="inline">
	<path d="M23.6,12.9H40V47H0V12.9h16.4v2.4h-14v29.4h35.3V15.3h-14L23.6,12.9L23.6,12.9z M18.8,28.2V0h2.4v28.2l6-6.2l1.3,1.4
		L20,31.7l-8.4-8.4l1.3-1.4L18.8,28.2z"/>
</g>
<g id="svg-dialog-icon-export" display="inline">
	<path d="M23.6,12.9H40V47H0V12.9h16.4v2.4h-14v29.4h35.3V15.3h-14L23.6,12.9L23.6,12.9z M12.8,9.7l-1.3-1.4L20,0l8.4,8.4l-1.3,1.4
		l-5.9-6.2v28.2h-2.4V3.5L12.8,9.7z"/>
</g>
<g id="svg-dialog-icon-reset" display="inline">
	<path d="M5.9,5.9C9.8,2,14.5,0,20,0s10.2,2,14.1,5.9S40,14.5,40,20s-2,10.2-5.9,14.1S25.5,40,20,40S9.8,38,5.9,34.1S0,25.5,0,20
		S2,9.8,5.9,5.9z M7,33c3.6,3.6,7.9,5.4,13,5.4s9.4-1.8,13-5.4s5.4-7.9,5.4-13S36.6,10.6,33,7s-7.9-5.4-13-5.4S10.6,3.4,7,7
		s-5.4,7.9-5.4,13S3.4,29.4,7,33z M30.4,20h1.9c0,3.4-1.2,6.3-3.6,8.7s-5.3,3.6-8.7,3.6s-6.3-1.2-8.7-3.6S7.7,23.4,7.7,20
		s1.2-6.3,3.6-8.7s5.3-3.6,8.7-3.6V3.5l9.2,6.2L20,15V9.6c-2.9,0-5.3,1-7.4,3s-3,4.5-3,7.4s1,5.3,3,7.4s4.5,3,7.4,3s5.3-1,7.4-3
		S30.4,22.9,30.4,20z"/>
</g>
<g id="svg-home-icon-hand" display="inline">
	<path fill="none" d="M7.6,34.8H2.9V19.3h4.7V34.8z"/>
	<rect x="5.1" y="21.1" fill="none" width="0.4" height="11.9"/>
	<path d="M2.9,34.8h4.7V19.3H2.9V34.8z M5.1,21.1h0.4V33H5.1V21.1z"/>
	<path d="M38.7,19.8c-0.5-0.5-1.1-0.9-1.6-1.4c-1.1-1-2.3-2-3.5-3c-0.7-0.6-1.8-1-2.9-1.1c-0.9-0.1-2-0.1-3.2-0.1
		c0.4-0.7,0.7-1.3,1.1-2c0.3-0.5,0.6-1.2,0.6-1.9c0.1-2.4,0.1-4.8,0-7.1c0-1.9-1.5-3.2-3.8-3.3c-0.6,0-1.3,0-1.9,0h-0.4
		c-2.2,0-3.4,0.8-4.1,2.6c-0.3,0.7-0.5,1.4-0.8,2.1c-0.3,1.1-0.7,2.2-1.2,3.3c-0.2,0.5-0.5,0.9-0.9,1.3c-0.8,0.7-1.5,1.4-2.3,2
		c-1.3,1.1-2.7,2.3-3.9,3.6c-1.5,1.6-2,1.9-5.4,1.9c-3,0-4.5,1.3-4.5,3.9c0,4.3,0,8.7,0,13c0,2.7,1.5,4,4.5,4c0.6,0,1,0,1.5,0h1
		c1,0,1.8,0,2.8,0.2c3,0.4,6,0.8,8.9,1.3c1.7,0.3,3.4,0.5,5.2,0.8c0.5,0.1,1,0.1,1.5,0.1c0.4,0,0.8,0,1.1-0.1
		c2.7-0.7,5.5-1.5,8.4-2.5C36,37,37,36,37.2,35c0.7-2.9,1.4-5.9,2.1-8.8c0.2-1,0.5-2,0.7-3.1C40.2,21.7,39.8,20.6,38.7,19.8z
		 M34.1,35.4c-2.8,1-5.6,1.7-8.2,2.4c-0.4,0.1-1,0-1.7-0.1c-1.7-0.2-3.4-0.5-5.2-0.8c-2.9-0.4-6-0.9-8.9-1.3c-1.1-0.1-2-0.2-3.1-0.2
		H6c-0.4,0-0.9,0-1.5,0c-1.9,0-2.4-0.4-2.4-2.1c0-4.3,0-8.7,0-13c0-1.6,0.5-2,2.4-2c3.9,0,5-0.6,7-2.6c1.2-1.2,2.5-2.3,3.8-3.4
		c0.8-0.7,1.6-1.4,2.4-2.1c0.6-0.5,1.1-1.2,1.4-2C19.6,7.1,20,6,20.4,4.9c0.3-0.7,0.5-1.4,0.8-2c0.4-1,0.8-1.2,2.1-1.2h1.2
		c0.3,0,0.6,0,1,0c0.8,0,1.7,0.3,1.7,1.5c0.1,2.3,0,4.6,0,7c0,0.3-0.3,0.8-0.4,1.2c-0.4,0.7-0.8,1.4-1.2,2.2L24.3,16H26
		c0.6,0,1.1,0,1.6,0c1.2,0,2.3,0,3.1,0c0.6,0.1,1.3,0.3,1.7,0.6c1.2,0.9,2.3,2,3.4,2.9c0.5,0.5,1.1,1,1.6,1.4
		c0.1,0.1,0.1,0.1,0.2,0.2h-6.4v1.8h6.7c-0.2,0.9-0.4,1.8-0.6,2.6c0,0.1,0,0.1,0,0.2h-6v2.1h5.6c-0.3,1.2-0.6,2.5-0.9,3.8h-4.7v1.9
		h4.3c-0.1,0.3-0.2,0.7-0.2,1C35,34.8,34.5,35.3,34.1,35.4z"/>
</g>
<g id="svg-spinner" display="inline">
	<path d="M15,0c0,0,1.3,0.2,1.3,1.5S15,3,15,3C8,3,2.2,8.1,2.2,15.8S8.6,28.6,15,28.6c7,0,14.2-6,14.2-14.2
		c0-7.5-7.7-13.7-13.5-14.2C23.7,0.4,30,7,30,15c0,8.3-6.7,15-15,15S0,23.2,0,15S6.7,0,15,0z"/>
</g>
<g id="svg-calendar-compensation" display="inline">
	<path fill="none" d="M31,17.5H9c-4.7,0-8.5-3.8-8.5-8.5l0,0c0-4.7,3.8-8.5,8.5-8.5h22c4.7,0,8.5,3.8,8.5,8.5l0,0
		C39.5,13.7,35.7,17.5,31,17.5z"/>
</g>
<g id="svg-arrow-left" display="inline">
	<polygon points="24.7,40 13.8,25 24.7,10 26.4,11.3 16.5,25 26.4,38.7 	"/>
</g>
<g id="svg-arrow-right" display="inline">
	<polygon points="15.5,40 26.4,25 15.5,10 13.8,11.3 23.7,25 13.8,38.7 	"/>
</g>
</svg>
